<svg width="689.839417" height="383.482300" viewBox="0 0 689.839 383.482" fill="none" xmlns="http://www.w3.org/2000/svg" xmlns:xlink="http://www.w3.org/1999/xlink">
	<desc>
			Created with Pixso.
	</desc>
	<defs/>
	<line id="Line 17" x1="25.128021" y1="-0.432983" x2="194.313446" y2="97.246216" stroke="#FFFFFF" stroke-opacity="1.000000" stroke-width="1.000000"/>
	<line id="Line 19" x1="532.004333" y1="291.778809" x2="690.089417" y2="383.049316" stroke="#FFFFFF" stroke-opacity="1.000000" stroke-width="1.000000"/>
	<path id="your personal" d="M37.13 197.38Q37.69 196.14 37.69 194.46L37.69 193.75Q37.69 192.08 37.13 190.83Q36.67 189.81 35.89 189.18Q35.72 189.04 35.52 188.91Q35.33 188.79 35.13 188.7Q34.23 188.25 33.11 188.25Q32.1 188.25 31.26 188.63Q30.98 188.76 30.72 188.92Q30.54 189.04 30.38 189.17Q29.58 189.81 29.11 190.85Q28.54 192.1 28.54 193.75L28.54 194.57Q28.56 196.18 29.13 197.4Q29.58 198.36 30.33 198.98Q30.52 199.14 30.74 199.28Q30.98 199.43 31.23 199.54Q32.08 199.94 33.13 199.94Q34.31 199.94 35.24 199.45Q35.39 199.38 35.53 199.28Q35.71 199.17 35.87 199.04Q36.66 198.42 37.13 197.38ZM151.39 193.35Q152.27 194.16 154.2 194.71Q155.74 195.16 156.32 195.62Q156.53 195.78 156.66 195.98Q156.91 196.37 156.91 196.91Q156.91 197.38 156.71 197.74Q156.55 198.02 156.27 198.23Q155.64 198.71 154.45 198.71Q153.18 198.71 152.42 198.12Q152.1 197.87 151.92 197.54Q151.66 197.09 151.66 196.49L150.15 196.49Q150.15 197.08 150.35 197.61Q150.48 197.95 150.7 198.26Q150.71 198.27 150.71 198.28Q151.26 199.05 152.27 199.49Q152.46 199.58 152.66 199.65Q153.5 199.94 154.45 199.94Q156.26 199.94 157.34 199.11Q157.86 198.71 158.12 198.18Q158.42 197.61 158.42 196.89Q158.42 196.05 158.05 195.41Q158.04 195.4 158.03 195.39Q157.64 194.75 156.84 194.27Q156.04 193.78 154.62 193.39Q153.2 192.99 152.61 192.51Q152.25 192.21 152.11 191.83Q152.02 191.6 152.02 191.33Q152.02 190.79 152.26 190.4Q152.41 190.16 152.64 189.98Q153.27 189.49 154.38 189.49Q155.57 189.49 156.23 190.08Q156.41 190.24 156.54 190.43Q156.88 190.95 156.88 191.7L158.39 191.7Q158.39 191.22 158.26 190.78Q158.14 190.35 157.89 189.96Q157.77 189.78 157.64 189.61Q157.18 189.06 156.47 188.71Q155.55 188.25 154.38 188.25Q152.77 188.25 151.73 189.02Q151.66 189.07 151.58 189.13Q151 189.61 150.73 190.23Q150.51 190.74 150.51 191.35Q150.51 191.94 150.72 192.43Q150.94 192.94 151.39 193.35ZM176.76 197.38Q177.33 196.14 177.33 194.46L177.33 193.75Q177.33 192.08 176.76 190.83Q176.31 189.81 175.53 189.18Q175.35 189.04 175.16 188.91Q174.97 188.79 174.77 188.7Q173.87 188.25 172.75 188.25Q171.74 188.25 170.9 188.63Q170.62 188.76 170.36 188.92Q170.18 189.04 170.02 189.17Q169.22 189.81 168.75 190.85Q168.18 192.1 168.18 193.75L168.18 194.57Q168.19 196.18 168.77 197.4Q169.22 198.36 169.97 198.98Q170.16 199.14 170.38 199.28Q170.62 199.43 170.87 199.54Q171.72 199.94 172.76 199.94Q173.95 199.94 174.88 199.45Q175.03 199.38 175.17 199.28Q175.35 199.17 175.51 199.04Q176.3 198.42 176.76 197.38ZM17.75 188.41L14.78 194.12L11.83 188.41L10.11 188.41L14.03 195.54L14.03 199.78L15.53 199.78L15.53 195.54L19.46 188.41L17.75 188.41ZM56.19 196.14L56.19 188.41L54.68 188.41L54.68 196.12Q54.68 197.23 54.14 197.89Q54.07 197.96 54 198.03Q53.95 198.08 53.9 198.13Q53.24 198.71 52.05 198.71Q50.91 198.71 50.25 198.15Q50.18 198.09 50.12 198.03Q50.04 197.95 49.97 197.87Q49.44 197.21 49.44 196.11L49.44 188.41L47.95 188.41L47.95 196.16Q47.96 197.48 48.58 198.37Q48.79 198.68 49.08 198.93Q49.2 199.04 49.33 199.14Q50.39 199.94 52.05 199.94L52.45 199.93Q53.91 199.82 54.85 199.07Q55.02 198.93 55.17 198.78Q55.48 198.47 55.69 198.11Q56.18 197.27 56.19 196.14ZM68.29 195.18L70.97 195.18L73.43 199.78L75.04 199.78L75.04 199.69L72.37 194.86Q73.23 194.53 73.78 193.92Q73.88 193.81 73.97 193.68Q74.13 193.46 74.25 193.22Q74.54 192.59 74.54 191.83Q74.54 190.53 73.91 189.71Q73.74 189.48 73.51 189.28Q72.47 188.41 70.55 188.41L66.79 188.41L66.79 199.78L68.29 199.78L68.29 195.18ZM98.59 199.78L98.59 195.33L101.27 195.33Q103.2 195.33 104.23 194.44Q104.48 194.23 104.66 193.97Q105.27 193.15 105.27 191.89Q105.27 190.87 104.82 190.12Q104.58 189.7 104.21 189.36Q104.17 189.33 104.14 189.3Q103.09 188.41 101.28 188.41L97.09 188.41L97.09 199.78L98.59 199.78ZM116.92 194.53L121.85 194.53L121.85 193.3L116.92 193.3L116.92 189.64L122.57 189.64L122.57 188.41L115.42 188.41L115.42 199.78L122.65 199.78L122.65 198.56L116.92 198.56L116.92 194.53ZM134.25 195.18L136.92 195.18L139.39 199.78L141 199.78L141 199.69L138.33 194.86Q139.19 194.53 139.74 193.92Q139.84 193.81 139.93 193.68Q140.09 193.46 140.21 193.22Q140.5 192.59 140.5 191.83Q140.5 190.53 139.87 189.71Q139.7 189.48 139.47 189.28Q138.43 188.41 136.51 188.41L132.75 188.41L132.75 199.78L134.25 199.78L134.25 195.18ZM195.05 199.78L196.56 199.78L196.56 188.41L195.07 188.41L195.07 197.21L189.33 188.41L187.82 188.41L187.82 199.78L189.33 199.78L189.33 191.02L195.05 199.78ZM208.05 199.78L209.12 196.82L213.89 196.82L214.97 199.78L216.51 199.78L212.16 188.41L210.85 188.41L206.5 199.78L208.05 199.78ZM233.18 198.56L227.79 198.56L227.79 188.41L226.28 188.41L226.28 199.78L233.18 199.78L233.18 198.56ZM35.38 190.62Q36.2 191.71 36.2 193.73L36.2 194.57Q36.17 196.55 35.38 197.61Q35.07 198.02 34.66 198.27Q34.02 198.67 33.13 198.67Q32.34 198.67 31.73 198.33Q31.23 198.05 30.86 197.55Q30.03 196.43 30.03 194.46L30.03 193.63Q30.06 191.71 30.87 190.62Q31.23 190.15 31.71 189.88Q32.31 189.54 33.11 189.54Q33.98 189.54 34.62 189.93Q35.05 190.19 35.38 190.62ZM175.02 190.62Q175.84 191.71 175.84 193.73L175.84 194.57Q175.81 196.55 175.01 197.61Q174.71 198.02 174.3 198.27Q173.66 198.67 172.76 198.67Q171.98 198.67 171.37 198.33Q170.87 198.05 170.5 197.55Q169.67 196.43 169.67 194.46L169.67 193.63Q169.69 191.71 170.51 190.62Q170.87 190.15 171.35 189.88Q171.95 189.54 172.75 189.54Q173.62 189.54 174.26 189.93Q174.69 190.19 175.02 190.62ZM70.6 193.96L68.29 193.96L68.29 189.64L70.59 189.64Q71.78 189.65 72.41 190.21Q72.52 190.32 72.62 190.44Q73.04 190.97 73.04 191.83Q73.04 192.45 72.76 192.92Q72.61 193.17 72.38 193.38Q72.34 193.41 72.29 193.45Q71.65 193.96 70.6 193.96ZM101.28 194.1L98.59 194.1L98.59 189.64L101.37 189.64Q102.38 189.67 103.01 190.17Q103.07 190.22 103.13 190.28Q103.31 190.45 103.44 190.65Q103.77 191.17 103.77 191.9Q103.77 192.77 103.34 193.31Q103.25 193.43 103.13 193.54Q102.48 194.1 101.28 194.1ZM136.56 193.96L134.25 193.96L134.25 189.64L136.55 189.64Q137.74 189.65 138.37 190.21Q138.48 190.32 138.58 190.44Q139 190.97 139 191.83Q139 192.45 138.72 192.92Q138.57 193.17 138.34 193.38Q138.3 193.41 138.25 193.45Q137.61 193.96 136.56 193.96ZM213.44 195.58L209.57 195.58L211.5 190.26L213.44 195.58Z" fill="#FFFFFF" fill-opacity="1.000000" fill-rule="evenodd"/>
	<mask id="mask844_18" mask-type="alpha" maskUnits="userSpaceOnUse" x="283.500000" y="148.789062" width="374.000000" height="145.500000">
		<path id="Rectangle 10" d="M283.5 148.78L657.5 148.78L657.5 294.28L535.5 294.28L283.5 148.78Z" fill="#C4C4C4" fill-opacity="1.000000" fill-rule="nonzero"/>
	</mask>
	<g mask="url(#mask844_18)">
		<path id="House" d="M199.06 281.78L208.67 281.78L208.67 214.57L199.06 214.57L199.06 281.78ZM260.42 281.78L270.03 281.78L270.03 214.57L260.42 214.57L260.42 243.39L213.45 243.39L213.45 253L260.42 253L260.42 281.78ZM364.2 261.3Q366.4 255.16 366.4 248.18Q366.4 241.24 364.2 235.12Q362.16 229.46 358.54 225.13Q358.25 224.78 357.94 224.43Q356.51 222.82 354.88 221.45Q351.88 218.93 348.21 217.21Q342.54 214.57 335.6 214.57L313.25 214.57Q306.26 214.57 300.54 217.21Q296.63 219.03 293.49 221.74Q292.05 222.99 290.77 224.43Q290.46 224.78 290.17 225.13Q286.55 229.46 284.51 235.12Q282.31 241.24 282.31 248.18Q282.31 255.16 284.51 261.3Q286.62 267.17 290.42 271.59Q290.59 271.79 290.77 271.99Q292.02 273.39 293.43 274.61Q296.59 277.34 300.54 279.16Q306.26 281.78 313.25 281.78L335.6 281.78Q342.54 281.78 348.21 279.16Q351.93 277.44 354.94 274.9Q356.54 273.56 357.94 271.99Q358.12 271.79 358.29 271.59Q362.09 267.17 364.2 261.3ZM450.59 248.18L450.68 214.57L440.98 214.57L440.98 248.18Q440.98 251.92 439.91 255.34Q439.57 256.45 439.1 257.53Q437.67 260.88 435.44 263.57Q434.76 264.4 434 265.17Q433.11 266.06 432.15 266.84Q429.57 268.94 426.4 270.3Q425.44 270.71 424.44 271.04Q420.94 272.18 417.07 272.18L410 272.18Q406.44 272.18 403.18 271.2Q401.92 270.82 400.71 270.3Q397.63 268.97 395.1 266.96Q394.05 266.12 393.1 265.17Q392.24 264.31 391.47 263.37Q389.34 260.75 387.96 257.53Q387.5 256.45 387.16 255.34Q386.09 251.92 386.09 248.18L386.09 214.57L376.48 214.57L376.48 248.18Q376.48 252.82 377.68 257.1Q378.82 261.23 380.88 264.83Q380.97 264.98 381.05 265.12Q382.07 266.87 383.29 268.48Q384.66 270.29 386.28 271.92Q387.76 273.41 389.41 274.7Q391.14 276.06 393.05 277.19Q393.4 277.4 393.75 277.59Q397.18 279.51 401.07 280.59Q405.35 281.78 410 281.78L417.07 281.78Q421.71 281.78 425.98 280.59Q429.78 279.52 433.16 277.68Q433.57 277.45 433.97 277.21Q435.51 276.32 436.93 275.27Q438.96 273.77 440.77 271.96Q442.57 270.16 444.07 268.13Q445.12 266.7 446.02 265.17Q446.1 265.02 446.19 264.88Q448.24 261.28 449.39 257.15Q450.59 252.86 450.59 248.18ZM537.62 269.07Q538.71 266.01 538.71 262.57Q538.71 259.75 537.94 257.15Q537.64 256.13 537.21 255.14Q536.12 252.6 534.45 250.53Q533.82 249.75 533.11 249.04Q532.46 248.39 531.76 247.81Q529.64 246.06 527.02 244.92Q526.2 244.56 525.35 244.29Q522.59 243.39 519.54 243.39L480.35 243.39Q479.01 243.39 477.76 243.04Q477.18 242.88 476.63 242.64Q475.4 242.12 474.38 241.32Q473.95 240.97 473.56 240.58Q473.17 240.19 472.82 239.76Q472.02 238.74 471.5 237.51Q471.26 236.96 471.1 236.38Q470.75 235.13 470.75 233.78Q470.75 232.44 471.1 231.19Q471.26 230.61 471.5 230.06Q472.02 228.83 472.82 227.81Q473.17 227.38 473.56 226.99Q473.95 226.6 474.38 226.25Q475.4 225.45 476.63 224.93Q477.18 224.69 477.76 224.53Q479.01 224.18 480.35 224.18L533.93 224.18L533.93 214.57L480.35 214.57Q477.74 214.57 475.31 215.24Q474.08 215.58 472.9 216.09Q470.14 217.29 467.94 219.15Q467.34 219.66 466.78 220.21Q466.23 220.77 465.72 221.37Q463.86 223.57 462.66 226.33Q462.15 227.51 461.81 228.74Q461.14 231.17 461.14 233.78Q461.14 236.71 461.96 239.39Q462.26 240.35 462.66 241.28Q463.86 244.05 465.72 246.25Q466.23 246.85 466.78 247.4Q467.4 248.02 468.08 248.58Q470.22 250.36 472.9 251.5Q474.01 251.98 475.16 252.3Q477.66 253 480.35 253L519.54 253Q521.32 253 522.88 253.59Q523.09 253.67 523.29 253.75Q524.47 254.26 525.45 255.04Q525.9 255.4 526.32 255.82Q526.7 256.21 527.04 256.64Q527.83 257.65 528.35 258.86Q528.54 259.3 528.69 259.75Q529.1 261.09 529.1 262.57Q529.1 263.91 528.75 265.16Q528.59 265.74 528.35 266.29Q527.77 267.65 526.87 268.75Q526.61 269.07 526.32 269.36Q525.9 269.78 525.45 270.14Q524.47 270.91 523.29 271.43Q523.09 271.51 522.88 271.59Q521.32 272.18 519.54 272.18L461.14 272.18L461.14 281.78L519.54 281.78Q522.68 281.78 525.51 280.85Q526.27 280.6 527.02 280.28Q529.56 279.19 531.62 277.52Q532.4 276.89 533.11 276.18Q533.82 275.47 534.45 274.69Q536.12 272.63 537.21 270.09Q537.43 269.58 537.62 269.07ZM549.96 281.78L619.48 281.78L619.48 272.18L559.57 272.18L559.57 224.18L619.48 224.18L619.48 214.57L549.96 214.57L549.96 281.78ZM355.34 238.85Q356.79 243.21 356.79 248.18Q356.79 253.14 355.34 257.53Q353.89 261.91 351.14 265.17Q350.07 266.45 348.81 267.51Q346.86 269.16 344.49 270.3Q340.57 272.18 335.6 272.18L313.25 272.18Q308.28 272.18 304.32 270.3Q301.71 269.07 299.63 267.24Q298.55 266.28 297.61 265.17Q294.87 261.91 293.39 257.53Q291.92 253.14 291.92 248.18Q291.92 243.21 293.39 238.85Q294.87 234.49 297.61 231.23Q298.51 230.17 299.53 229.25Q301.65 227.35 304.32 226.07Q308.28 224.18 313.25 224.18L335.6 224.18Q340.57 224.18 344.49 226.07Q346.93 227.26 348.91 228.97Q350.11 230 351.14 231.23Q353.89 234.49 355.34 238.85ZM564.35 253L611.32 253L611.32 243.39L564.35 243.39L564.35 253Z" fill="#FFFFFF" fill-opacity="1.000000" fill-rule="evenodd"/>
	</g>
	<mask id="mask844_20" mask-type="alpha" maskUnits="userSpaceOnUse" x="185.000000" y="186.788940" width="392.500000" height="145.500000">
		<path id="Rectangle 9" d="M577.5 332.28L185 332.28L185 186.78L325 186.78L577.5 332.28Z" fill="#C4C4C4" fill-opacity="1.000000" fill-rule="nonzero"/>
	</mask>
	<g mask="url(#mask844_20)">
		<path id="House" d="M199.06 281.78L208.67 281.78L208.67 214.57L199.06 214.57L199.06 281.78ZM260.42 281.78L270.03 281.78L270.03 214.57L260.42 214.57L260.42 243.39L213.45 243.39L213.45 253L260.42 253L260.42 281.78ZM364.2 261.3Q366.4 255.16 366.4 248.18Q366.4 241.24 364.2 235.12Q362.16 229.46 358.54 225.13Q358.25 224.78 357.94 224.43Q356.51 222.82 354.88 221.45Q351.88 218.93 348.21 217.21Q342.54 214.57 335.6 214.57L313.25 214.57Q306.26 214.57 300.54 217.21Q296.63 219.03 293.49 221.74Q292.05 222.99 290.77 224.43Q290.46 224.78 290.17 225.13Q286.55 229.46 284.51 235.12Q282.31 241.24 282.31 248.18Q282.31 255.16 284.51 261.3Q286.62 267.17 290.42 271.59Q290.59 271.79 290.77 271.99Q292.02 273.39 293.43 274.61Q296.59 277.34 300.54 279.16Q306.26 281.78 313.25 281.78L335.6 281.78Q342.54 281.78 348.21 279.16Q351.93 277.44 354.94 274.9Q356.54 273.56 357.94 271.99Q358.12 271.79 358.29 271.59Q362.09 267.17 364.2 261.3ZM450.59 248.18L450.68 214.57L440.98 214.57L440.98 248.18Q440.98 251.92 439.91 255.34Q439.57 256.45 439.1 257.53Q437.67 260.88 435.44 263.57Q434.76 264.4 434 265.17Q433.11 266.06 432.15 266.84Q429.57 268.94 426.4 270.3Q425.44 270.71 424.44 271.04Q420.94 272.18 417.07 272.18L410 272.18Q406.44 272.18 403.18 271.2Q401.92 270.82 400.71 270.3Q397.63 268.97 395.1 266.96Q394.05 266.12 393.1 265.17Q392.24 264.31 391.47 263.37Q389.34 260.75 387.96 257.53Q387.5 256.45 387.16 255.34Q386.09 251.92 386.09 248.18L386.09 214.57L376.48 214.57L376.48 248.18Q376.48 252.82 377.68 257.1Q378.82 261.23 380.88 264.83Q380.97 264.98 381.05 265.12Q382.07 266.87 383.29 268.48Q384.66 270.29 386.28 271.92Q387.76 273.41 389.41 274.7Q391.14 276.06 393.05 277.19Q393.4 277.4 393.75 277.59Q397.18 279.51 401.07 280.59Q405.35 281.78 410 281.78L417.07 281.78Q421.71 281.78 425.98 280.59Q429.78 279.52 433.16 277.68Q433.57 277.45 433.97 277.21Q435.51 276.32 436.93 275.27Q438.96 273.77 440.77 271.96Q442.57 270.16 444.07 268.13Q445.12 266.7 446.02 265.17Q446.1 265.02 446.19 264.88Q448.24 261.28 449.39 257.15Q450.59 252.86 450.59 248.18ZM537.62 269.07Q538.71 266.01 538.71 262.57Q538.71 259.75 537.94 257.15Q537.64 256.13 537.21 255.14Q536.12 252.6 534.45 250.53Q533.82 249.75 533.11 249.04Q532.46 248.39 531.76 247.81Q529.64 246.06 527.02 244.92Q526.2 244.56 525.35 244.29Q522.59 243.39 519.54 243.39L480.35 243.39Q479.01 243.39 477.76 243.04Q477.18 242.88 476.63 242.64Q475.4 242.12 474.38 241.32Q473.95 240.97 473.56 240.58Q473.17 240.19 472.82 239.76Q472.02 238.74 471.5 237.51Q471.26 236.96 471.1 236.38Q470.75 235.13 470.75 233.78Q470.75 232.44 471.1 231.19Q471.26 230.61 471.5 230.06Q472.02 228.83 472.82 227.81Q473.17 227.38 473.56 226.99Q473.95 226.6 474.38 226.25Q475.4 225.45 476.63 224.93Q477.18 224.69 477.76 224.53Q479.01 224.18 480.35 224.18L533.93 224.18L533.93 214.57L480.35 214.57Q477.74 214.57 475.31 215.24Q474.08 215.58 472.9 216.09Q470.14 217.29 467.94 219.15Q467.34 219.66 466.78 220.21Q466.23 220.77 465.72 221.37Q463.86 223.57 462.66 226.33Q462.15 227.51 461.81 228.74Q461.14 231.17 461.14 233.78Q461.14 236.71 461.96 239.39Q462.26 240.35 462.66 241.28Q463.86 244.05 465.72 246.25Q466.23 246.85 466.78 247.4Q467.4 248.02 468.08 248.58Q470.22 250.36 472.9 251.5Q474.01 251.98 475.16 252.3Q477.66 253 480.35 253L519.54 253Q521.32 253 522.88 253.59Q523.09 253.67 523.29 253.75Q524.47 254.26 525.45 255.04Q525.9 255.4 526.32 255.82Q526.7 256.21 527.04 256.64Q527.83 257.65 528.35 258.86Q528.54 259.3 528.69 259.75Q529.1 261.09 529.1 262.57Q529.1 263.91 528.75 265.16Q528.59 265.74 528.35 266.29Q527.77 267.65 526.87 268.75Q526.61 269.07 526.32 269.36Q525.9 269.78 525.45 270.14Q524.47 270.91 523.29 271.43Q523.09 271.51 522.88 271.59Q521.32 272.18 519.54 272.18L461.14 272.18L461.14 281.78L519.54 281.78Q522.68 281.78 525.51 280.85Q526.27 280.6 527.02 280.28Q529.56 279.19 531.62 277.52Q532.4 276.89 533.11 276.18Q533.82 275.47 534.45 274.69Q536.12 272.63 537.21 270.09Q537.43 269.58 537.62 269.07ZM549.96 281.78L619.48 281.78L619.48 272.18L559.57 272.18L559.57 224.18L619.48 224.18L619.48 214.57L549.96 214.57L549.96 281.78ZM355.34 238.85Q356.79 243.21 356.79 248.18Q356.79 253.14 355.34 257.53Q353.89 261.91 351.14 265.17Q350.07 266.45 348.81 267.51Q346.86 269.16 344.49 270.3Q340.57 272.18 335.6 272.18L313.25 272.18Q308.28 272.18 304.32 270.3Q301.71 269.07 299.63 267.24Q298.55 266.28 297.61 265.17Q294.87 261.91 293.39 257.53Q291.92 253.14 291.92 248.18Q291.92 243.21 293.39 238.85Q294.87 234.49 297.61 231.23Q298.51 230.17 299.53 229.25Q301.65 227.35 304.32 226.07Q308.28 224.18 313.25 224.18L335.6 224.18Q340.57 224.18 344.49 226.07Q346.93 227.26 348.91 228.97Q350.11 230 351.14 231.23Q353.89 234.49 355.34 238.85ZM564.35 253L611.32 253L611.32 243.39L564.35 243.39L564.35 253Z" fill="#FFFFFF" fill-opacity="1.000000" fill-rule="evenodd"/>
	</g>
	<mask id="mask844_22" mask-type="alpha" maskUnits="userSpaceOnUse" x="0.000000" y="83.789062" width="398.500000" height="145.500000">
		<path id="Rectangle 8" d="M398.5 229.28L0 229.28L0 83.78L146 83.78L398.5 229.28Z" fill="#C4C4C4" fill-opacity="1.000000" fill-rule="nonzero"/>
	</mask>
	<g mask="url(#mask844_22)">
		<path id="Dream" d="M89.05 153.3Q91.28 147.16 91.28 140.17Q91.28 133.24 89.05 127.12Q87.01 121.51 83.41 117.2Q83.08 116.81 82.75 116.43Q81.33 114.85 79.72 113.49Q76.69 110.94 72.97 109.21Q67.28 106.57 60.34 106.57L12.06 106.57L12.06 173.78L21.67 173.78L21.67 116.18L60.34 116.18Q65.31 116.18 69.27 118.07Q71.94 119.35 74.05 121.25Q75.08 122.17 75.97 123.23Q78.71 126.49 80.19 130.85Q81.67 135.21 81.67 140.17Q81.67 145.14 80.19 149.53Q78.71 153.91 75.97 157.17Q75.03 158.28 73.95 159.24Q71.87 161.07 69.27 162.3Q65.31 164.18 60.34 164.18L26.45 164.18L26.45 173.78L60.34 173.78Q67.28 173.78 72.97 171.16Q76.73 169.43 79.79 166.86Q81.36 165.53 82.75 163.99Q82.95 163.75 83.16 163.52Q86.94 159.13 89.05 153.3ZM168.15 173.78L181.14 173.78L160.98 154.28Q163.87 153.81 166.49 152.7Q167.74 152.17 168.93 151.5Q171.2 150.21 173.1 148.51Q174.28 147.46 175.32 146.25Q176 145.46 176.6 144.63Q178.43 142.09 179.59 139.07Q179.84 138.43 180.04 137.78Q181.14 134.35 181.14 130.57Q181.14 126.78 180.03 123.35Q179.69 122.28 179.24 121.24Q177.86 118.07 175.77 115.49Q174.98 114.51 174.08 113.62Q173.19 112.73 172.21 111.94Q169.63 109.84 166.46 108.46Q165.43 108.01 164.35 107.67Q160.92 106.57 157.14 106.57L103.56 106.57L103.56 173.78L113.17 173.78L113.17 116.18L157.14 116.18Q159.54 116.18 161.7 116.9Q162.24 117.08 162.76 117.3Q164.75 118.15 166.35 119.48Q166.86 119.9 167.33 120.37Q167.8 120.84 168.22 121.35Q169.55 122.95 170.4 124.94Q170.63 125.47 170.81 126.01Q171.53 128.17 171.53 130.57Q171.53 132.84 170.88 134.92Q170.67 135.58 170.4 136.21Q169.53 138.26 168.17 139.9Q167.77 140.38 167.33 140.83Q166.83 141.34 166.28 141.79Q164.71 143.1 162.76 143.95Q162.16 144.21 161.54 144.41Q159.45 145.1 157.14 145.1L118.56 145.1L118.56 154.57L148 154.57L168.15 173.78ZM193.42 173.78L262.93 173.78L262.93 164.18L203.03 164.18L203.03 116.18L262.93 116.18L262.93 106.57L193.42 106.57L193.42 173.78ZM341.64 173.78L351.25 173.78L351.25 106.57L307.18 106.57Q302.54 106.57 298.28 107.76Q294.7 108.76 291.51 110.47Q290.89 110.8 290.28 111.16Q288.6 112.16 287.05 113.33Q285.17 114.75 283.49 116.43Q281.68 118.24 280.19 120.27Q279.14 121.69 278.24 123.23Q278.15 123.37 278.07 123.52Q276.01 127.12 274.86 131.25Q273.67 135.53 273.67 140.17L273.67 173.78L283.28 173.78L283.28 140.17Q283.28 136.39 284.38 132.96Q284.72 131.89 285.18 130.85Q286.61 127.55 288.81 124.89Q289.52 124.03 290.31 123.23Q291.13 122.4 292.02 121.66Q294.65 119.49 297.9 118.07Q299.18 117.52 300.51 117.12Q303.71 116.18 307.18 116.18L341.64 116.18L341.64 145L288.01 145L288.01 154.57L341.64 154.57L341.64 173.78ZM406.14 173.78L415.75 173.78L415.75 140.17Q415.75 136.39 416.85 132.96Q417.19 131.89 417.64 130.85Q419.02 127.68 421.11 125.1Q421.91 124.12 422.8 123.23Q423.69 122.34 424.67 121.54Q427.25 119.45 430.42 118.07Q431.46 117.62 432.53 117.28Q435.96 116.18 439.75 116.18L444.95 116.18L444.95 173.78L454.56 173.78L454.56 106.57L439.75 106.57Q435.15 106.57 430.91 107.76Q426.93 108.88 423.43 110.85Q423.2 110.98 422.96 111.11Q420.98 112.27 419.19 113.66Q417.63 114.87 416.21 116.27Q414.61 117.85 413.24 119.61Q412.01 121.2 410.96 122.93Q409.68 120.84 408.15 118.98Q406.98 117.56 405.67 116.27Q404.25 114.87 402.69 113.66Q400.9 112.27 398.92 111.11Q398.69 110.98 398.45 110.85Q394.95 108.88 390.97 107.76Q386.73 106.57 382.14 106.57L367.37 106.57L367.37 173.78L376.98 173.78L376.98 116.18L382.14 116.18Q385.8 116.18 389.15 117.21Q390.34 117.58 391.49 118.07Q394.8 119.51 397.46 121.71Q398.33 122.43 399.13 123.23Q400.08 124.18 400.92 125.23Q402.94 127.77 404.26 130.85Q404.68 131.81 405 132.8Q406.14 136.3 406.14 140.17L406.14 173.78ZM207.81 145L254.78 145L254.78 135.39L207.81 135.39L207.81 145Z" fill="#FFFFFF" fill-opacity="1.000000" fill-rule="evenodd"/>
	</g>
	<mask id="mask844_24" mask-type="alpha" maskUnits="userSpaceOnUse" x="147.000000" y="69.788940" width="367.000000" height="145.500000">
		<path id="Rectangle 7" d="M147 69.78L514 69.78L514 215.28L398.5 215.28L147 69.78Z" fill="#C4C4C4" fill-opacity="1.000000" fill-rule="nonzero"/>
	</mask>
	<g mask="url(#mask844_24)">
		<path id="Dream" d="M89.05 153.3Q91.28 147.16 91.28 140.17Q91.28 133.24 89.05 127.12Q87.01 121.51 83.41 117.2Q83.08 116.81 82.75 116.43Q81.33 114.85 79.72 113.49Q76.69 110.94 72.97 109.21Q67.28 106.57 60.34 106.57L12.06 106.57L12.06 173.78L21.67 173.78L21.67 116.18L60.34 116.18Q65.31 116.18 69.27 118.07Q71.94 119.35 74.05 121.25Q75.08 122.17 75.97 123.23Q78.71 126.49 80.19 130.85Q81.67 135.21 81.67 140.17Q81.67 145.14 80.19 149.53Q78.71 153.91 75.97 157.17Q75.03 158.28 73.95 159.24Q71.87 161.07 69.27 162.3Q65.31 164.18 60.34 164.18L26.45 164.18L26.45 173.78L60.34 173.78Q67.28 173.78 72.97 171.16Q76.73 169.43 79.79 166.86Q81.36 165.53 82.75 163.99Q82.95 163.75 83.16 163.52Q86.94 159.13 89.05 153.3ZM168.15 173.78L181.14 173.78L160.98 154.28Q163.87 153.81 166.49 152.7Q167.74 152.17 168.93 151.5Q171.2 150.21 173.1 148.51Q174.28 147.46 175.32 146.25Q176 145.46 176.6 144.63Q178.43 142.09 179.59 139.07Q179.84 138.43 180.04 137.78Q181.14 134.35 181.14 130.57Q181.14 126.78 180.03 123.35Q179.69 122.28 179.24 121.24Q177.86 118.07 175.77 115.49Q174.98 114.51 174.08 113.62Q173.19 112.73 172.21 111.94Q169.63 109.84 166.46 108.46Q165.43 108.01 164.35 107.67Q160.92 106.57 157.14 106.57L103.56 106.57L103.56 173.78L113.17 173.78L113.17 116.18L157.14 116.18Q159.54 116.18 161.7 116.9Q162.24 117.08 162.76 117.3Q164.75 118.15 166.35 119.48Q166.86 119.9 167.33 120.37Q167.8 120.84 168.22 121.35Q169.55 122.95 170.4 124.94Q170.63 125.47 170.81 126.01Q171.53 128.17 171.53 130.57Q171.53 132.84 170.88 134.92Q170.67 135.58 170.4 136.21Q169.53 138.26 168.17 139.9Q167.77 140.38 167.33 140.83Q166.83 141.34 166.28 141.79Q164.71 143.1 162.76 143.95Q162.16 144.21 161.54 144.41Q159.45 145.1 157.14 145.1L118.56 145.1L118.56 154.57L148 154.57L168.15 173.78ZM193.42 173.78L262.93 173.78L262.93 164.18L203.03 164.18L203.03 116.18L262.93 116.18L262.93 106.57L193.42 106.57L193.42 173.78ZM341.64 173.78L351.25 173.78L351.25 106.57L307.18 106.57Q302.54 106.57 298.28 107.76Q294.7 108.76 291.51 110.47Q290.89 110.8 290.28 111.16Q288.6 112.16 287.05 113.33Q285.17 114.75 283.49 116.43Q281.68 118.24 280.19 120.27Q279.14 121.69 278.24 123.23Q278.15 123.37 278.07 123.52Q276.01 127.12 274.86 131.25Q273.67 135.53 273.67 140.17L273.67 173.78L283.28 173.78L283.28 140.17Q283.28 136.39 284.38 132.96Q284.72 131.89 285.18 130.85Q286.61 127.55 288.81 124.89Q289.52 124.03 290.31 123.23Q291.13 122.4 292.02 121.66Q294.65 119.49 297.9 118.07Q299.18 117.52 300.51 117.12Q303.71 116.18 307.18 116.18L341.64 116.18L341.64 145L288.01 145L288.01 154.57L341.64 154.57L341.64 173.78ZM406.14 173.78L415.75 173.78L415.75 140.17Q415.75 136.39 416.85 132.96Q417.19 131.89 417.64 130.85Q419.02 127.68 421.11 125.1Q421.91 124.12 422.8 123.23Q423.69 122.34 424.67 121.54Q427.25 119.45 430.42 118.07Q431.46 117.62 432.53 117.28Q435.96 116.18 439.75 116.18L444.95 116.18L444.95 173.78L454.56 173.78L454.56 106.57L439.75 106.57Q435.15 106.57 430.91 107.76Q426.93 108.88 423.43 110.85Q423.2 110.98 422.96 111.11Q420.98 112.27 419.19 113.66Q417.63 114.87 416.21 116.27Q414.61 117.85 413.24 119.61Q412.01 121.2 410.96 122.93Q409.68 120.84 408.15 118.98Q406.98 117.56 405.67 116.27Q404.25 114.87 402.69 113.66Q400.9 112.27 398.92 111.11Q398.69 110.98 398.45 110.85Q394.95 108.88 390.97 107.76Q386.73 106.57 382.14 106.57L367.37 106.57L367.37 173.78L376.98 173.78L376.98 116.18L382.14 116.18Q385.8 116.18 389.15 117.21Q390.34 117.58 391.49 118.07Q394.8 119.51 397.46 121.71Q398.33 122.43 399.13 123.23Q400.08 124.18 400.92 125.23Q402.94 127.77 404.26 130.85Q404.68 131.81 405 132.8Q406.14 136.3 406.14 140.17L406.14 173.78ZM207.81 145L254.78 145L254.78 135.39L207.81 135.39L207.81 145Z" fill="#FFFFFF" fill-opacity="1.000000" fill-rule="evenodd"/>
	</g>
</svg>
